<svg xmlns="http://www.w3.org/2000/svg" version="1.1" xmlns:xlink="http://www.w3.org/1999/xlink" xmlns:svgjs="http://svgjs.dev/svgjs" width="2000" height="2000" viewBox="0 0 2000 2000"><g transform="matrix(1,0,0,1,-0.28443113772425477,-0.28443113772459583)"><svg viewBox="0 0 334 334" data-background-color="#ffffff" preserveAspectRatio="xMidYMid meet" height="2000" width="2000" xmlns="http://www.w3.org/2000/svg" xmlns:xlink="http://www.w3.org/1999/xlink"><g id="tight-bounds" transform="matrix(1,0,0,1,0.04749999999998522,0.04750000000001364)"><svg viewBox="0 0 333.90454557049503 333.90454557049503" height="333.90454557049503" width="333.90454557049503"><rect width="333.905" height="333.905" fill="url(#eea0324a-88fe-4ccd-9905-29bb1e26c0ee)" mask="url(#69e82633-f210-4913-8557-3dedff5e71d1)" data-fill-palette-color="tertiary"></rect><g><svg></svg></g><g><svg viewBox="0 0 333.90454557049503 333.90454557049503" height="333.90454557049503" width="333.90454557049503"><g><path d="M0 166.952c0-92.205 74.747-166.952 166.952-166.952 92.205 0 166.952 74.747 166.953 166.952 0 92.205-74.747 166.952-166.953 166.953-92.205 0-166.952-74.747-166.952-166.953zM166.952 323.227c86.308 0 156.274-69.966 156.275-156.275 0-86.308-69.966-156.274-156.275-156.274-86.308 0-156.274 69.966-156.274 156.274 0 86.308 69.966 156.274 156.274 156.275z" data-fill-palette-color="tertiary" fill="url(#eea0324a-88fe-4ccd-9905-29bb1e26c0ee)" stroke="transparent"></path><ellipse rx="160.27418187383762" ry="160.27418187383762" cx="166.95227278524752" cy="166.95227278524752" fill="url(#eea0324a-88fe-4ccd-9905-29bb1e26c0ee)" stroke="transparent" stroke-width="0" fill-opacity="1" data-fill-palette-color="tertiary"></ellipse></g><g transform="matrix(1,0,0,1,78.93893492412127,71.17305217166896)"><svg viewBox="0 0 176.0266757222525 191.55844122715712" height="191.55844122715712" width="176.0266757222525"><g><svg viewBox="0 0 176.0266757222525 191.55844122715712" height="191.55844122715712" width="176.0266757222525"><g><svg viewBox="0 0 176.0266757222525 191.55844122715712" height="191.55844122715712" width="176.0266757222525"><g><svg viewBox="0 0 176.0266757222525 191.55844122715712" height="191.55844122715712" width="176.0266757222525"><g id="textblocktransform"><svg viewBox="0 0 176.0266757222525 191.55844122715712" height="191.55844122715712" width="176.0266757222525" id="textblock"><g><svg viewBox="0 0 176.0266757222525 191.55844122715712" height="191.55844122715712" width="176.0266757222525"><g transform="matrix(1,0,0,1,0,0)"><svg width="176.0266757222525" viewBox="2.71 -35.64 33.199999999999996 36.13" height="191.55844122715712" data-palette-color="#ffffff"><path d="M3.61 0L3.61 0Q3.66-0.2 3.75-0.71 3.83-1.22 3.91-1.92 3.98-2.61 4.04-3.41 4.1-4.2 4.1-4.96L4.1-4.96Q4.1-6.98 3.94-8.52 3.78-10.06 3.61-10.62L3.61-10.62Q5-10.4 6.23-10.33 7.45-10.25 8.62-10.25L8.62-10.25Q10.77-10.25 12.43-10.62L12.43-10.62Q12.43-9.55 12.94-8.58 13.45-7.62 14.37-6.91 15.28-6.2 16.56-5.79 17.85-5.37 19.41-5.37L19.41-5.37Q20.46-5.37 21.53-5.48 22.61-5.59 23.47-5.96 24.34-6.32 24.88-7.01 25.42-7.69 25.42-8.84L25.42-8.84Q25.42-9.67 24.91-10.56 24.41-11.45 23.35-12.16 22.29-12.87 20.62-13.33 18.95-13.79 16.6-13.79L16.6-13.79Q14.6-13.79 12.63-13.68 10.67-13.57 8.37-12.99L8.37-12.99Q8.33-13.72 7.85-14.6 7.37-15.48 6.63-16.25 5.88-17.02 4.92-17.54 3.96-18.07 2.95-18.07L2.95-18.07 2.71-18.07Q3-18.19 3.22-18.63 3.44-19.07 3.58-19.7 3.71-20.34 3.78-21.11 3.86-21.88 3.86-22.68L3.86-22.68Q3.86-24.71 3.65-26.32 3.44-27.93 3.05-28.61L3.05-28.61 3.22-28.61Q3.93-28.61 4.79-28.98 5.64-29.35 6.51-29.94 7.37-30.54 8.2-31.29 9.03-32.03 9.68-32.81 10.33-33.59 10.74-34.34 11.16-35.08 11.21-35.64L11.21-35.64Q11.57-35.42 12.12-35.19 12.67-34.96 13.49-34.75 14.31-34.55 15.43-34.42 16.55-34.3 18.09-34.3L18.09-34.3Q18.99-34.3 20.01-34.4 21.02-34.5 21.97-34.68 22.92-34.86 23.75-35.11 24.58-35.35 25.1-35.64L25.1-35.64Q25.29-34.89 25.76-34.09 26.22-33.3 26.86-32.74L26.86-32.74Q27.49-33.28 27.78-33.96 28.08-34.64 28.2-35.16L28.2-35.16Q28.56-34.94 29.3-34.8 30.03-34.67 31.2-34.67L31.2-34.67Q32.98-34.67 34.52-35.16L34.52-35.16Q34.47-34.96 34.4-34.4 34.33-33.84 34.25-33.11 34.18-32.37 34.13-31.54 34.08-30.71 34.08-29.96L34.08-29.96Q34.08-27.83 34.24-26.23 34.4-24.63 34.52-24.05L34.52-24.05Q33.28-24.27 32.18-24.34 31.08-24.41 29.98-24.41L29.98-24.41Q27.83-24.41 26.2-24.05L26.2-24.05Q26.2-25.17 25.68-26.17 25.17-27.17 24.26-27.93 23.34-28.69 22.06-29.11 20.78-29.54 19.21-29.54L19.21-29.54Q18.14-29.54 17.08-29.38 16.02-29.22 15.15-28.82 14.28-28.42 13.75-27.76 13.21-27.1 13.21-26.07L13.21-26.07Q13.21-25.22 13.64-24.41 14.06-23.61 15.04-22.97 16.02-22.34 17.61-21.95 19.21-21.56 21.56-21.56L21.56-21.56Q22.53-21.56 23.68-21.57 24.83-21.58 25.95-21.64 27.08-21.7 28.08-21.83 29.08-21.95 29.81-22.17L29.81-22.17Q29.88-21.44 30.42-20.51 30.96-19.58 31.77-18.76 32.59-17.94 33.62-17.4 34.64-16.85 35.67-16.85L35.67-16.85 35.91-16.85Q35.62-16.72 35.4-16.28 35.18-15.84 35.05-15.21 34.91-14.58 34.84-13.81 34.77-13.04 34.77-12.23L34.77-12.23Q34.77-11.23 34.81-10.3 34.86-9.38 34.97-8.59 35.08-7.81 35.23-7.21 35.38-6.62 35.57-6.3L35.57-6.3 35.4-6.3Q34.69-6.3 33.84-5.96 32.98-5.62 32.1-5.04 31.23-4.47 30.4-3.75 29.57-3.03 28.91-2.27 28.25-1.51 27.84-0.79 27.44-0.07 27.42 0.49L27.42 0.49Q27.05 0.27 26.5 0.07 25.95-0.12 25.13-0.28 24.32-0.44 23.19-0.52 22.07-0.61 20.53-0.61L20.53-0.61Q19.63-0.61 18.69-0.55 17.75-0.49 16.88-0.35 16.02-0.22 15.27-0.01 14.53 0.2 14.01 0.49L14.01 0.49Q13.79-0.27 13.34-0.98 12.89-1.68 12.26-2.2L12.26-2.2Q11.6-1.71 11.32-1.11 11.04-0.51 10.91 0L10.91 0Q10.72-0.1 10.29-0.21 9.86-0.32 9.33-0.4 8.79-0.49 8.18-0.55 7.57-0.61 6.98-0.61L6.98-0.61Q6.03-0.61 5.13-0.44 4.22-0.27 3.61 0Z" opacity="1" transform="matrix(1,0,0,1,0,0)" fill="#ffffff" class="wordmark-text-0" data-fill-palette-color="quaternary" id="text-0"></path></svg></g></svg></g></svg></g></svg></g><g></g></svg></g></svg></g></svg></g></svg></g><defs></defs><mask id="69e82633-f210-4913-8557-3dedff5e71d1"><g id="SvgjsG1558"><svg viewBox="0 0 333.90454557049503 333.90454557049503" height="333.90454557049503" width="333.90454557049503"><g><svg></svg></g><g><svg viewBox="0 0 333.90454557049503 333.90454557049503" height="333.90454557049503" width="333.90454557049503"><g><path d="M0 166.952c0-92.205 74.747-166.952 166.952-166.952 92.205 0 166.952 74.747 166.953 166.952 0 92.205-74.747 166.952-166.953 166.953-92.205 0-166.952-74.747-166.952-166.953zM166.952 323.227c86.308 0 156.274-69.966 156.275-156.275 0-86.308-69.966-156.274-156.275-156.274-86.308 0-156.274 69.966-156.274 156.274 0 86.308 69.966 156.274 156.274 156.275z" fill="white" stroke="transparent"></path><ellipse rx="160.27418187383762" ry="160.27418187383762" cx="166.95227278524752" cy="166.95227278524752" fill="white" stroke="transparent" stroke-width="0" fill-opacity="1"></ellipse></g><g transform="matrix(1,0,0,1,78.93893492412127,71.17305217166896)"><svg viewBox="0 0 176.0266757222525 191.55844122715712" height="191.55844122715712" width="176.0266757222525"><g><svg viewBox="0 0 176.0266757222525 191.55844122715712" height="191.55844122715712" width="176.0266757222525"><g><svg viewBox="0 0 176.0266757222525 191.55844122715712" height="191.55844122715712" width="176.0266757222525"><g><svg viewBox="0 0 176.0266757222525 191.55844122715712" height="191.55844122715712" width="176.0266757222525"><g id="SvgjsG1557"><svg viewBox="0 0 176.0266757222525 191.55844122715712" height="191.55844122715712" width="176.0266757222525" id="SvgjsSvg1556"><g><svg viewBox="0 0 176.0266757222525 191.55844122715712" height="191.55844122715712" width="176.0266757222525"><g transform="matrix(1,0,0,1,0,0)"><svg width="176.0266757222525" viewBox="2.71 -35.64 33.199999999999996 36.13" height="191.55844122715712" data-palette-color="#ffffff"><path d="M3.61 0L3.61 0Q3.66-0.2 3.75-0.71 3.83-1.22 3.91-1.92 3.98-2.61 4.04-3.41 4.1-4.2 4.1-4.96L4.1-4.96Q4.1-6.98 3.94-8.52 3.78-10.06 3.61-10.62L3.61-10.62Q5-10.4 6.23-10.33 7.45-10.25 8.62-10.25L8.62-10.25Q10.77-10.25 12.43-10.62L12.43-10.62Q12.43-9.55 12.94-8.58 13.45-7.62 14.37-6.91 15.28-6.2 16.56-5.79 17.85-5.37 19.41-5.37L19.41-5.37Q20.46-5.37 21.53-5.48 22.61-5.59 23.47-5.96 24.34-6.32 24.88-7.01 25.42-7.69 25.42-8.84L25.42-8.84Q25.42-9.67 24.91-10.56 24.41-11.45 23.35-12.16 22.29-12.87 20.62-13.33 18.95-13.79 16.6-13.79L16.6-13.79Q14.6-13.79 12.63-13.68 10.67-13.57 8.37-12.99L8.37-12.99Q8.33-13.72 7.85-14.6 7.37-15.48 6.63-16.25 5.88-17.02 4.92-17.54 3.96-18.07 2.95-18.07L2.95-18.07 2.71-18.07Q3-18.19 3.22-18.63 3.44-19.07 3.58-19.7 3.71-20.34 3.78-21.11 3.86-21.88 3.86-22.68L3.86-22.68Q3.86-24.71 3.65-26.32 3.44-27.93 3.05-28.61L3.05-28.61 3.22-28.61Q3.93-28.61 4.79-28.98 5.64-29.35 6.51-29.94 7.37-30.54 8.2-31.29 9.03-32.03 9.68-32.81 10.33-33.59 10.74-34.34 11.16-35.08 11.21-35.64L11.21-35.64Q11.57-35.42 12.12-35.19 12.67-34.96 13.49-34.75 14.31-34.55 15.43-34.42 16.55-34.3 18.09-34.3L18.09-34.3Q18.99-34.3 20.01-34.4 21.02-34.5 21.97-34.68 22.92-34.86 23.75-35.11 24.58-35.35 25.1-35.64L25.1-35.64Q25.29-34.89 25.76-34.09 26.22-33.3 26.86-32.74L26.86-32.74Q27.49-33.28 27.78-33.96 28.08-34.64 28.2-35.16L28.2-35.16Q28.56-34.94 29.3-34.8 30.03-34.67 31.2-34.67L31.2-34.67Q32.98-34.67 34.52-35.16L34.52-35.16Q34.47-34.96 34.4-34.4 34.33-33.84 34.25-33.11 34.18-32.37 34.13-31.54 34.08-30.71 34.08-29.96L34.08-29.96Q34.08-27.83 34.24-26.23 34.4-24.63 34.52-24.05L34.52-24.05Q33.28-24.27 32.18-24.34 31.08-24.41 29.98-24.41L29.98-24.41Q27.83-24.41 26.2-24.05L26.2-24.05Q26.2-25.17 25.68-26.17 25.17-27.17 24.26-27.93 23.34-28.69 22.06-29.11 20.78-29.54 19.21-29.54L19.21-29.54Q18.14-29.54 17.08-29.38 16.02-29.22 15.15-28.82 14.28-28.42 13.75-27.76 13.21-27.1 13.21-26.07L13.21-26.07Q13.21-25.22 13.64-24.41 14.06-23.61 15.04-22.97 16.02-22.34 17.61-21.95 19.21-21.56 21.56-21.56L21.56-21.56Q22.53-21.56 23.68-21.57 24.83-21.58 25.95-21.64 27.08-21.7 28.08-21.83 29.08-21.95 29.81-22.17L29.81-22.17Q29.88-21.44 30.42-20.51 30.96-19.58 31.77-18.76 32.59-17.94 33.62-17.4 34.64-16.85 35.67-16.85L35.67-16.85 35.91-16.85Q35.62-16.72 35.4-16.28 35.18-15.84 35.05-15.21 34.91-14.58 34.84-13.81 34.77-13.04 34.77-12.23L34.77-12.23Q34.77-11.23 34.81-10.3 34.86-9.38 34.97-8.59 35.08-7.81 35.23-7.21 35.38-6.62 35.57-6.3L35.57-6.3 35.4-6.3Q34.69-6.3 33.84-5.96 32.98-5.62 32.1-5.04 31.23-4.47 30.4-3.75 29.57-3.03 28.91-2.27 28.25-1.51 27.84-0.79 27.44-0.07 27.42 0.49L27.42 0.49Q27.05 0.27 26.5 0.07 25.95-0.12 25.13-0.28 24.32-0.44 23.19-0.52 22.07-0.61 20.53-0.61L20.53-0.61Q19.63-0.61 18.69-0.55 17.75-0.49 16.88-0.35 16.02-0.22 15.27-0.01 14.53 0.2 14.01 0.49L14.01 0.49Q13.79-0.27 13.34-0.98 12.89-1.68 12.26-2.2L12.26-2.2Q11.6-1.71 11.32-1.11 11.04-0.51 10.91 0L10.91 0Q10.72-0.1 10.29-0.21 9.86-0.32 9.33-0.4 8.79-0.49 8.18-0.55 7.57-0.61 6.98-0.61L6.98-0.61Q6.03-0.61 5.13-0.44 4.22-0.27 3.61 0Z" opacity="1" transform="matrix(1,0,0,1,0,0)" fill="black" class="wordmark-text-0" id="SvgjsPath1555"></path></svg></g></svg></g></svg></g></svg></g><g></g></svg></g></svg></g></svg></g></svg></g><defs><mask></mask></defs></svg><rect width="333.90454557049503" height="333.90454557049503" fill="black" stroke="none" visibility="hidden"></rect></g></mask><linearGradient x1="0" x2="1" y1="0.5" y2="0.5" id="eea0324a-88fe-4ccd-9905-29bb1e26c0ee"><stop stop-color="#ffa62e" offset="0"></stop><stop stop-color="#f71b3d" offset="1"></stop></linearGradient></svg><rect width="333.90454557049503" height="333.90454557049503" fill="none" stroke="none" visibility="hidden"></rect></g></svg></g></svg>